<svg width="24" height="28" viewBox="0 0 24 28" fill="none" xmlns="http://www.w3.org/2000/svg">
<path d="M10 2C9.47656 2 8.94141 2.18359 8.5625 2.5625C8.18359 2.94141 8 3.47656 8 4V5H2V7H3V23C3 24.6445 4.35547 26 6 26H18C19.6445 26 21 24.6445 21 23V7H22V5H16V4C16 3.47656 15.8164 2.94141 15.4375 2.5625C15.0586 2.18359 14.5234 2 14 2H10ZM10 4H14V5H10V4ZM5 7H19V23C19 23.5547 18.5547 24 18 24H6C5.44531 24 5 23.5547 5 23V7ZM7 10V21H9V10H7ZM11 10V21H13V10H11ZM15 10V21H17V10H15Z" fill="#AAAAAA"/>
</svg>
